<?xml version="1.0" encoding="UTF-8"?>
<svg id="_Слой_2" data-name="Слой 2" xmlns="http://www.w3.org/2000/svg" xmlns:xlink="http://www.w3.org/1999/xlink" viewBox="0 0 197.32 260.4">
  <defs>
    <style>
      .cls-1, .cls-2, .cls-3 {
        stroke: #221f20;
        stroke-width: .25px;
      }

      .cls-1, .cls-2, .cls-3, .cls-4 {
        stroke-miterlimit: 10;
      }

      .cls-1, .cls-5 {
        fill: #f2f1f0;
      }

      .cls-2 {
        fill: #e7363d;
      }

      .cls-3 {
        fill: #221f20;
      }

      .cls-4 {
        fill: #e03035;
        stroke: #f2f1f0;
        stroke-width: 3px;
      }
    </style>
    <symbol id="Logo_Vertical_2" data-name="Logo Vertical 2" viewBox="0 0 197.32 260.4">
      <g>
        <g>
          <path class="cls-1" d="M169.37,159.65c-6.66-.54-13.17-1.66-19.16-4.81-.63,.85-1.21,1.61-1.77,2.37-6.4,.21-12.6-.32-19.15-1.35,.12-1.87,.07-3.52,.37-5.11,.71-3.85,1.64-7.66,2.36-11.51,.39-2.08,.56-4.21-.39-6.34-2.54,.34-4.85,.78-7.19,.94-3.51,.23-7.03,.45-10.54,.32-2.43-.09-2.99-.9-3.31-3.32-2.18-16.23-4.36-32.46-6.5-48.7-1.69-12.82-3.31-25.66-5.03-39-.34,1.34-.63,2.17-.75,3.03-1.25,9.13-2.48,18.27-3.7,27.4-1.47,11.08-2.94,22.16-4.39,33.25-.96,7.38-1.87,14.77-2.81,22.16-.22,1.76-.52,3.51-2.37,5.04-6.38-.41-13.1-.85-20.05-1.29-.19,1.25-.57,2.31-.45,3.32,.39,3.19,.9,6.37,1.48,9.54,.57,3.15,.93,6.13,1.43,10.14-1.09,.29-2.27,.19-3.31,.3-3.89,.42-7.81,.62-11.69,1.12-.7,.06-2.87-1.69-5.23-2.75-1.36,.64-2.59,1.24-3.84,1.79-5.29,2.32-10.92,3.02-16.6,3.48-5.31,.27-11.51,.92-17.46-.24-3.63-.5-5.72-1.64-9.2-2.89,0-.98-.02-6.09,.45-7.4,1.92-5.26,4.83-7.36,10.37-7.3,1.56,.02,3.13,.2,4.67,.43,1.45,.21,2.94,.42,4.3,.92,7.07,2.6,13.45,.66,19.8-2.85-.57-.22-1.01-.35-1.41-.57-.49-.27-.95-.61-1.4-.9,1.11-2.64,1.77-3.16,4.1-3,.96,.07,1.91,.37,2.84,.65,2.21,.66,3.36,.26,4.16-1.88,.5-1.34,.63-2.82,.95-4.39-4.36-1.08-8.54-2.06-12.69-3.16-7.49-1.98-14.84-4.36-21.54-8.38-2.68-1.61-5.26-3.41-6.95-6.19,.27-.7,.5-1.35,.76-1.98,9.85-23.24,19.69-46.48,29.58-69.7,5.06-11.88,10.23-23.72,15.35-35.58,1.2-2.77,2.93-4.87,6.2-5.12,3.41,0,6.83-.01,10.24-.02,.75,.01,1.51,.03,2.26,.04,6.07,.64,11.98,1.85,17.65,4.21,3.23,1.34,5.34,3.57,6.49,6.77,.56,1.56,.89,3.2,1.34,4.81,.27,.96,.57,1.91,.86,2.86,1.13-2.56,1.77-5.07,2.48-7.57,.81-2.89,2.49-5.06,5.31-6.28,9.79-4.24,19.95-5.56,30.5-3.86,2.48,.4,4.42,1.64,5.75,3.71,.89,1.39,1.6,2.91,2.26,4.43,1.41,3.23,2.71,6.5,4.11,9.73,11.69,26.82,23.4,53.63,35.1,80.44,1.72,3.94,3.42,7.87,5.2,11.96-1.03,1.29-1.81,2.74-3,3.67-2.3,1.8-4.71,3.54-7.29,4.91-6.7,3.54-13.96,5.6-21.2,7.7-3.17,.92-6.34,1.84-9.43,2.73-.07,.58-.14,.87-.13,1.16,.19,4.6,1.38,5.54,5.85,4.79,1.24-.21,2.55-.36,3.78-.21,1.92,.24,2.34,.97,2.36,3.31-.68,.41-1.38,.83-2.5,1.5,2.82,.99,5.17,1.93,7.58,2.65,4.26,1.28,8.48,1.28,12.64-.57,2.84-1.27,5.89-1.45,8.95-1.15,4.74,.46,8.48,3.41,9.56,7.52,.29,1.12,.19,6.21,.75,7.16-2.15,1.43-5.94,2.55-9.96,3.01-7.62,.82-11.94,.34-17.83,.12Zm-25.43-31.64c-9.54-41.15-18.96-81.76-28.4-122.47-.92,.07-1.5,.07-2.06,.18-.55,.11-1.09,.33-1.75,.54,7.57,41.16,15.12,82.17,22.71,123.48,3.16-.58,6.02-1.1,9.49-1.73ZM85.71,6.31c-1.48-.48-2.64-.86-4-1.3-9.03,41.01-20.12,81.36-27.73,122.72,2.98,.53,5.63,1.47,8.54,1.02,7.74-40.87,15.45-81.57,23.19-122.44ZM29.05,121.56C42.92,81.97,56.67,42.71,70.47,3.34c-.89-.15-1.46-.28-2.04-.33-.55-.05-1.11-.01-1.75-.01-15.24,38.47-30.76,76.69-44.66,115.66,.57,.28,.98,.53,1.43,.7,1.72,.69,3.45,1.35,5.6,2.19ZM126.9,3.86c13.75,39.21,27.02,78.39,41.41,117.47,2.64-1.13,4.93-2.11,7.41-3.17-15.13-38.36-30.12-76.38-45.08-114.31h-3.74Zm-7.6,.8c11.06,40.5,22.07,80.8,33.19,121.48,2.56-.72,5.03-1.41,7.54-2.12-12.42-40.19-24.72-79.99-37.05-119.88-1.36,.19-2.39,.34-3.68,.52Zm-44.83-.93c-6.66,18.12-36.36,116.28-36.45,120.65,2.19,.55,4.43,1.11,6.68,1.67,11.08-40.7,22.08-81.14,33.13-121.76-1.33-.22-2.27-.38-3.36-.56Zm58.52,145.4c4.25,1.56,10.51,1.37,13.06-.36,.25,.1,.55,.17,.78,.33,7.15,5.18,15.13,7.66,23.95,7.41,5.49-.15,10.98-.23,16.45-.63,2.36-.17,4.67-1.08,7.03-1.66,0-.88,0-1.36,0-1.84-.03-4.46-2.64-8.49-8.5-8.31-3.56,.11-6.99,.73-10.4,1.6-2.19,.56-4.31,.99-6.61,.34-3.17-.9-6.43-1.52-9.54-2.23-1.16,1.28-2.17,2.4-3.36,3.7-1.23-2.25,1.38-2.65,1.22-4.41-.68-.33-1.51-.75-2.36-1.16-.99,.63-1.88,1.21-2.69,1.72-.2,.85-.37,1.54-.55,2.33-2.03-.83-1.36-2.34-1.46-3.58,.68-.74,1.31-1.42,1.89-2.05-1.04-1.96-2.48-1.33-3.63-.73-2.79,1.44-5.73,1.13-8.65,.95-1.73-.1-3.44-.46-5.21-.71-1.48,3.07-1.65,6.06-1.43,9.3ZM2.69,153.97c4.15,1.57,8.46,2.37,12.85,2.54,6.07,.22,12.11-.18,18.16-.97,5.51-.71,10.4-2.54,14.91-5.65,.87-.6,1.84-1.05,2.77-1.57,.75,.71,1.36,1.3,2.08,1.99,3.48-.31,6.94-.62,10.38-.93,.3-3.5-.37-6.39-1.81-9.37-1.16,.06-2.36-.06-3.47,.2-3.44,.78-6.78,.88-9.98-.85-1.4-.76-2.55-.52-3.62,.85,1.32,.92,2.5,1.74,3.59,2.5q-.03,2.51-1.66,3.02c-.09-.94-.17-1.88-.27-2.96-2.09-.67-4.05-.45-5.98-.13-.26,1.85,2.8,2.92,.66,5.21-.9-1.55-1.68-2.87-2.51-4.29-.69,.2-1.34,.36-1.98,.59-6.17,2.16-12.38,2.67-18.71,.66-1.76-.55-3.62-.93-5.45-1.02-2.55-.12-5.1,.19-7.21,1.89-2.66,2.14-3.2,4.99-2.71,8.3Zm73.02-23.3c1.42-9.77,2.77-19.08,4.12-28.39,1.47-10.09,2.92-20.18,4.42-30.27,1.47-9.89,2.97-19.77,4.47-29.65,1.33-8.72,2.7-17.43,3.99-26.15,.2-1.35,.25-2.75,.12-4.11-.15-1.62-.91-2.92-2.73-3.38-7.05,40.45-14.01,80.78-20,121.65,2.06,.11,3.68,.19,5.6,.29Zm51.47-.02c-6.66-41.04-13.24-81.56-19.87-122.46-.9,.53-1.4,.78-1.84,1.11-.46,.34-.85,.77-1.33,1.21,5.82,40.21,11.62,80.35,17.47,120.76,2.01-.23,3.62-.41,5.57-.62ZM15.54,114.75C30.7,77.71,45.87,40.64,61.2,3.18c-1.44,.31-2.45,.52-3.76,.8C42.07,39.96,26.71,75.94,11.37,111.87c.89,1.64,2.02,2.74,4.17,2.88ZM136.13,4.38c15.19,37.02,30.17,73.64,46.16,110.33,1.33-1.15,2.31-2,3.33-2.87-2.41-5.87-4.63-11.51-7.03-17.07-8.59-19.84-17.23-39.66-25.87-59.49-3.98-9.15-8-18.28-11.98-27.44-.81-1.87-1.8-3.43-4.61-3.47Zm-52.32,126.41c.77-5.58,1.51-10.83,2.21-16.07,1.49-11.18,2.97-22.37,4.45-33.56,1.13-8.56,2.26-17.12,3.34-25.69,.96-7.59,2-15.17,2.73-22.78,.35-3.67,.08-7.41-1.13-11.64-4.9,36.98-11.05,73.14-15.31,109.74h3.71ZM102.17,20.67c-1.42,2.82-1.89,5.91-1.51,9.04,1.41,11.58,2.91,23.15,4.39,34.72,2.4,18.67,4.79,37.35,7.22,56.02,.46,3.57,1.07,7.13,1.62,10.71h3.61c-5.13-36.95-10.23-73.72-15.33-110.49Zm32.32,117.15c4.48,1.22,8.57,2.64,12.88-.05-.49-2.43-.95-4.76-1.43-7.15-4.21,.75-8.01,1.43-11.99,2.14,.19,1.78,.36,3.31,.54,5.06Zm-83.43-7.29c-.53,2.58-1,4.84-1.48,7.16,4.47,2.82,8.46,.9,12.44-.15,.23-1.83,.42-3.36,.65-5.21-3.85-.59-7.57-1.17-11.6-1.79Zm104.85,8.15c-.62-1.22-.98-.8-1.33,.14,.37-.04,.74-.08,1.33-.14Zm-112.95-.35c-.01-.13-.03-.27-.04-.4h-2.31c.02,.22,.03,.45,.05,.67,.77-.09,1.54-.18,2.3-.27Z"/>
          <path class="cls-3" d="M143.94,128.01c-3.47,.63-6.33,1.16-9.49,1.73-7.6-41.3-15.14-82.32-22.71-123.48,.66-.21,1.19-.43,1.75-.54,.56-.11,1.14-.11,2.06-.18,9.44,40.71,18.86,81.32,28.4,122.47Z"/>
          <path class="cls-3" d="M85.71,6.31c-7.74,40.87-15.45,81.58-23.19,122.44-2.9,.45-5.56-.49-8.54-1.02,7.61-41.35,18.7-81.71,27.73-122.72,1.35,.44,2.52,.82,4,1.3Z"/>
          <path class="cls-3" d="M29.05,121.56c-2.15-.84-3.88-1.5-5.6-2.19-.44-.18-.86-.42-1.43-.7C35.92,79.69,51.44,41.47,66.68,3c.64,0,1.2-.04,1.75,.01,.58,.05,1.15,.18,2.04,.33-13.79,39.37-27.55,78.63-41.42,118.21Z"/>
          <path class="cls-3" d="M126.9,3.86h3.74c14.96,37.92,29.95,75.95,45.08,114.31-2.48,1.06-4.78,2.04-7.41,3.17-14.39-39.09-27.66-78.26-41.41-117.47Z"/>
          <path class="cls-3" d="M119.3,4.66c1.29-.18,2.32-.33,3.68-.52,12.33,39.89,24.63,79.69,37.05,119.88-2.51,.71-4.98,1.4-7.54,2.12-11.11-40.68-22.12-80.98-33.19-121.48Z"/>
          <path class="cls-3" d="M74.47,3.73c1.09,.18,2.03,.34,3.36,.56-11.05,40.62-22.05,81.05-33.13,121.76-2.25-.56-4.49-1.12-6.68-1.67,.09-4.37,29.78-102.53,36.45-120.65Z"/>
          <path class="cls-2" d="M132.99,149.13c-.22-3.24-.05-6.22,1.43-9.3,1.76,.25,3.48,.61,5.21,.71,2.92,.17,5.86,.49,8.65-.95,1.16-.6,2.6-1.23,3.63,.73-.58,.63-1.21,1.31-1.89,2.05,.1,1.23-.57,2.75,1.46,3.58,.19-.78,.35-1.48,.55-2.33,.8-.51,1.7-1.09,2.69-1.72,.85,.42,1.68,.83,2.36,1.16,.16,1.76-2.45,2.16-1.22,4.41,1.18-1.31,2.2-2.43,3.36-3.7,3.11,.71,6.37,1.33,9.54,2.23,2.3,.65,4.42,.22,6.61-.34,3.41-.87,6.84-1.49,10.4-1.6,5.86-.18,8.47,3.85,8.5,8.31,0,.48,0,.96,0,1.84-2.36,.58-4.67,1.49-7.03,1.66-5.47,.4-10.96,.48-16.45,.63-8.82,.25-16.81-2.23-23.95-7.41-.23-.17-.53-.23-.78-.33-2.56,1.73-8.81,1.92-13.06,.36Z"/>
          <path class="cls-2" d="M2.69,153.97c-.48-3.31,.05-6.16,2.71-8.3,2.11-1.7,4.66-2.02,7.21-1.89,1.83,.09,3.7,.47,5.45,1.02,6.34,2,12.54,1.49,18.71-.66,.63-.22,1.28-.38,1.98-.59,.83,1.42,1.6,2.74,2.51,4.29,2.14-2.29-.92-3.36-.66-5.21,1.93-.31,3.89-.53,5.98,.13,.1,1.08,.19,2.02,.27,2.96q1.63-.51,1.66-3.02c-1.09-.76-2.27-1.58-3.59-2.5,1.08-1.37,2.22-1.61,3.62-.85,3.2,1.73,6.55,1.63,9.98,.85,1.11-.25,2.31-.14,3.47-.2,1.44,2.98,2.11,5.87,1.81,9.37-3.43,.31-6.9,.62-10.38,.93-.71-.68-1.33-1.27-2.08-1.99-.92,.52-1.9,.97-2.77,1.57-4.51,3.12-9.4,4.94-14.91,5.65-6.05,.78-12.09,1.19-18.16,.97-4.39-.16-8.7-.96-12.85-2.54Z"/>
          <path class="cls-3" d="M75.71,130.67c-1.92-.1-3.54-.18-5.6-.29,5.98-40.87,12.94-81.2,20-121.65,1.82,.45,2.58,1.76,2.73,3.38,.13,1.35,.08,2.76-.12,4.11-1.3,8.72-2.67,17.43-3.99,26.15-1.5,9.88-3.01,19.77-4.47,29.65-1.5,10.09-2.95,20.18-4.42,30.27-1.35,9.31-2.7,18.62-4.12,28.39Z"/>
          <path class="cls-3" d="M127.18,130.64c-1.96,.22-3.56,.4-5.57,.62-5.85-40.41-11.65-80.55-17.47-120.76,.48-.44,.87-.87,1.33-1.21,.44-.33,.94-.57,1.84-1.11,6.64,40.9,13.21,81.42,19.87,122.46Z"/>
          <path class="cls-3" d="M15.54,114.75c-2.15-.14-3.28-1.24-4.17-2.88C26.71,75.94,42.07,39.96,57.43,3.98c1.32-.28,2.33-.5,3.76-.8C45.87,40.64,30.7,77.71,15.54,114.75Z"/>
          <path class="cls-3" d="M136.13,4.38c2.8,.04,3.79,1.59,4.61,3.47,3.98,9.15,7.99,18.29,11.98,27.44,8.63,19.82,17.28,39.64,25.87,59.49,2.4,5.56,4.62,11.2,7.03,17.07-1.02,.88-2,1.73-3.33,2.87-15.98-36.7-30.97-73.32-46.16-110.33Z"/>
          <path class="cls-3" d="M83.81,130.8h-3.71c4.26-36.6,10.41-72.75,15.31-109.74,1.21,4.23,1.49,7.96,1.13,11.64-.73,7.61-1.77,15.19-2.73,22.78-1.08,8.57-2.22,17.13-3.34,25.69-1.47,11.19-2.95,22.37-4.45,33.56-.7,5.25-1.44,10.49-2.21,16.07Z"/>
          <path class="cls-3" d="M102.17,20.67c5.1,36.77,10.21,73.54,15.33,110.49h-3.61c-.54-3.58-1.15-7.13-1.62-10.71-2.43-18.67-4.83-37.34-7.22-56.02-1.48-11.57-2.98-23.14-4.39-34.72-.38-3.13,.09-6.22,1.51-9.04Z"/>
          <path class="cls-3" d="M134.49,137.82c-.19-1.75-.35-3.28-.54-5.06,3.98-.71,7.78-1.39,11.99-2.14,.48,2.39,.95,4.72,1.43,7.15-4.31,2.69-8.4,1.27-12.88,.05Z"/>
          <path class="cls-3" d="M51.06,130.53c4.03,.62,7.76,1.19,11.6,1.79-.23,1.85-.42,3.39-.65,5.21-3.98,1.05-7.96,2.98-12.44,.15,.48-2.31,.94-4.57,1.48-7.16Z"/>
        </g>
        <g>
          <path class="cls-5" d="M43.71,231.83c-9.52,2.32,4.18-32.19,4.07-37.8-6.81,10.53-12.02,27.33-23.74,33.19-11.64-.19-.57-23.14-.63-29.35-6.66,10.44-12.16,24.74-19.17,34.63-5.83-1.84-2.06-9.36,.47-12.42,4.82-9.33,11.43-20.96,16.6-29.42,1.2-2.33,2.62-6.94,5.61-5.38,8.83,4.58-3.1,26.32-1.57,34.06,8.33-8.77,12.92-20.89,20.17-31.66,1.92-3.67,4.47-6.26,7.81-2.67,4.01,3.46-2.65,18.87-3.47,24.44-1.55,4.85-1.86,8.38-2.87,13.22-.35,3.38,.34,8.13-3.27,9.15Z"/>
          <path class="cls-5" d="M79.84,234.83c-2.04-.82-3.43-2.34-2.94-4.54,5.14-10.59,9.74-24.66,14.29-36.27-8.81,9.91-17.2,21.44-26.62,30.62-2.18,1.96-4.81,4.74-7.65,5.64-2.94-.51-4.27-1.56-3.64-4.17,4.04-14.02,7.44-28.02,14.19-41.04,.96-1.56,.15-2.97,1.4-3.87,3.18-1.53,5.95,2.24,4.61,5.21-3.7,9.13-9.64,25.09-13.22,34.13,3.47-3.56,15.08-14.62,17.77-18.5,4.65-6.09,12.24-12.97,17.3-18.7,2.09-1.22,4.28-.69,4.98,1.77-3.18,12.39-10.08,24.92-13.62,37.54-1.3,2.32-3.68,14.01-6.85,12.19Z"/>
          <path class="cls-5" d="M96.74,231.76c-2.59-1.17-2.21-3.68-1.6-6.01,4.03-11.95,8.06-25.11,13.62-36.73,.62-.74,1.13-3.15,2-3.94,3.28-1.98,4.97-.56,5.14,2.71-1.89,5.39-5.76,11.69-7.28,17.2-1.73,4.17-3.84,9.16-5.08,13.79-1.26,2.23-3.34,16.66-6.81,12.99Zm8.15-25.65c4.51-1.85,28.68-27.06,30.35-18.67,.93,2.05,.6,2.87-1.5,3.98-5.99,3.23-11.1,8.29-16.1,11.55-2.97,3.02-7.34,5.03-10.35,8.15l-2.4-5.01Zm15.49,25.51c-8.18-3.01-12.84-13.06-14.29-21.17,0,0,.07-4.14,.07-4.14l4.88-.33c.82,7.6,4.22,16.65,11.29,19.7,4.81,1.13,2.77,8.72-1.94,5.94Z"/>
          <path class="cls-4" d="M135.27,230.96c-10.55-5.78-2.7-26.51,2.2-35.06,3.26-5.84,9.22-10.75,14.56-11.89,26.98-5.75,2.43,56.48-16.76,46.95Zm13.74-22.64c5.04-.01,13.35-18.57,5.33-18.22-3.9,1.67-11.71,17.02-5.33,18.22Z"/>
          <path class="cls-5" d="M171.27,233.03c-20.77-7.22,3.57-56,21.04-50.53,8.35,3.33,1.08,21.77-3.57,19.67-1.2-.32-3.61-2.06-2.77-3.01,1.13-1.47,2.69-4.38,3.34-6.14,4.81-17.77-21.19,12.63-19.5,25.41-1.28,15.76,11.46,4.79,18.63,1.77,8.69,3.1-13.33,14.7-17.16,12.82Z"/>
        </g>
        <g>
          <path class="cls-5" d="M1.08,245.53H12.92v2.03H1.08v-2.03Zm4.64,.9h2.57v10.38h-2.57v-10.38Z"/>
          <path class="cls-5" d="M20.16,257.09c-4.84,.38-8.5-4.82-5.91-9.02,3.4-5.32,12.41-2.62,11.71,4.02H15.45v-1.97h9.24l-1.28,.74c.14-3.72-5.17-4.86-6.89-1.82-2.66,5.83,5.48,7.6,9.14,4.47v1.87c-1.43,1.12-3.61,1.72-5.49,1.71Z"/>
          <path class="cls-5" d="M39.29,251.17c-.67,7.4-11.99,7.98-11.8,0-.21-7.98,11.17-7.41,11.8,0Zm-9.2,0c0,5.45,7.27,4.52,8.29,0-1.02-4.52-8.29-5.45-8.29,0Zm8.41,5.64l-.43-4.19,.51-1.45-.51-1.43,.43-4.21h2.64l-.59,5.64,.59,5.64h-2.64Z"/>
          <path class="cls-5" d="M42.51,245.53h11.84v2.03h-11.84v-2.03Zm4.64,.9h2.57v10.38h-2.57v-10.38Z"/>
          <path class="cls-5" d="M55.97,245.53h2.57c-.1,4.12,0,10.38,0,14.57h-2.57v-14.57Zm1.58,5.64c.66-7.41,12-7.98,11.8,0,.18,7.99-11.12,7.39-11.8,0Zm9.2,0c0-5.45-7.25-4.51-8.29,0,1.04,4.51,8.28,5.45,8.29,0Z"/>
          <path class="cls-5" d="M76.71,256.81v-11.28h2.57v9.09l-.77-.28,7.13-8.81h2.92l-9.47,11.28h-2.37Zm9.2,0l-3.47-5.58,1.8-1.63,4.68,7.21h-3Z"/>
          <path class="cls-5" d="M92.15,245.53h10.99v11.28h-2.57v-10.48l1.18,1.2h-8.33l1.11-.92c.57,4.32,.78,12.63-5.49,9.92v-1.93c4.91,1.69,3.16-6.08,3.1-9.07Z"/>
          <path class="cls-5" d="M112.04,257.09c-8.94,.42-8.94-12.27,0-11.84,8.94-.43,8.94,12.26,0,11.84Zm0-2.03c5.51,.43,5.51-8.2,0-7.77-5.51-.42-5.51,8.19,0,7.77Z"/>
          <path class="cls-5" d="M124.32,256.45l-5.13-10.92h2.82l4.86,10.92h-2.55Zm-1.28,3.93c-1.24,0-2.28-.31-3.28-.94v-1.97c1.7,1.14,4.51,1.57,5.45-.74,0,0,5.03-11.2,5.03-11.2h2.72c-2.08,2.8-5.18,15.43-9.93,14.85Z"/>
          <path class="cls-5" d="M134.46,245.53h2.55v11.28h-2.55v-11.28Zm1.44,4.56h9.12v1.99h-9.12v-1.99Zm8.05-4.56h2.55v11.28h-2.55v-11.28Z"/>
          <path class="cls-5" d="M160.44,251.17c-.67,7.4-11.99,7.98-11.8,0-.21-7.98,11.17-7.41,11.8,0Zm-9.2,0c0,5.45,7.27,4.52,8.29,0-1.02-4.52-8.29-5.45-8.29,0Zm8.41,5.64l-.43-4.19,.51-1.45-.51-1.43,.43-4.21h2.64l-.59,5.64,.59,5.64h-2.64Z"/>
          <path class="cls-5" d="M179.23,254.82v4.84h-2.23v-2.85h-11.17v2.85h-2.23v-4.84c4.35,.05,11.28,.04,15.63,0Zm-13.15-9.29h11.07v10.52h-2.57v-9.72l1.18,1.2h-8.35l1.1-.88c.16,3.12,.84,8.81-2.8,9.41l-1.05-.9c1.86-1.08,1.77-6.82,1.4-9.63Z"/>
          <path class="cls-5" d="M181.08,256.81v-11.28h2.57v10.56l-.91-1.2c1.77-.32,7.12,1.13,7.01-1.97,.14-3.11-5.16-1.69-6.93-1.99v-1.85c1.65,.12,5.98-.35,7.4,.49,2.82,1.19,2.82,5.58,0,6.77-1.46,.88-7.44,.34-9.14,.48Zm12.55-11.28h2.57v11.28h-2.57v-11.28Z"/>
        </g>
      </g>
    </symbol>
  </defs>
  <g id="_Слой_1-2" data-name="Слой 1">
    <use width="197.32" height="260.4" xlink:href="#Logo_Vertical_2"/>
  </g>
</svg>