<?xml version="1.0" encoding="UTF-8"?>
<svg id="_Слой_2" data-name="Слой 2" xmlns="http://www.w3.org/2000/svg" xmlns:xlink="http://www.w3.org/1999/xlink" viewBox="0 0 196.22 259.21">
  <defs>
    <style>
      .cls-1 {
        fill: #141313;
      }

      .cls-2 {
        fill: #e03035;
      }

      .cls-3 {
        fill: #f1f0f0;
      }

      .cls-4 {
        fill: #010101;
      }
    </style>
    <symbol id="Logo_vertical" data-name="Logo vertical" viewBox="0 0 196.22 259.21">
      <g>
        <g>
          <path class="cls-1" d="M168.55,158.88c-6.63-.54-13.12-1.66-19.08-4.79-.63,.85-1.2,1.61-1.76,2.36-6.37,.21-12.55-.32-19.07-1.34,.12-1.86,.07-3.51,.37-5.09,.71-3.84,1.64-7.63,2.35-11.46,.38-2.07,.56-4.2-.39-6.31-2.53,.34-4.83,.78-7.16,.93-3.49,.23-7.01,.45-10.5,.31-2.42-.09-2.97-.9-3.3-3.31-2.17-16.16-4.34-32.33-6.47-48.5-1.68-12.77-3.3-25.55-5.01-38.84-.33,1.33-.63,2.16-.74,3.02-1.24,9.09-2.47,18.19-3.68,27.29-1.47,11.04-2.93,22.07-4.37,33.11-.96,7.35-1.86,14.71-2.8,22.07-.22,1.75-.52,3.49-2.36,5.02-6.36-.41-13.04-.84-19.97-1.29-.18,1.24-.57,2.3-.45,3.3,.39,3.18,.9,6.35,1.48,9.5,.57,3.13,.92,6.1,1.43,10.1-1.09,.29-2.26,.19-3.3,.3-3.88,.41-7.78,.61-11.65,1.12-.7,.06-2.86-1.68-5.21-2.74-1.35,.63-2.57,1.24-3.82,1.79-5.27,2.31-10.87,3.01-16.53,3.46-5.29,.27-11.46,.92-17.39-.24-3.61-.5-5.7-1.63-9.16-2.88,0-.98-.02-6.07,.45-7.37,1.91-5.24,4.81-7.33,10.33-7.27,1.55,.02,3.11,.2,4.65,.43,1.44,.21,2.93,.42,4.29,.91,7.05,2.59,13.4,.66,19.72-2.84-.56-.22-1.01-.35-1.41-.57-.49-.27-.94-.61-1.39-.9,1.11-2.63,1.76-3.15,4.08-2.98,.95,.07,1.9,.37,2.83,.65,2.2,.66,3.35,.26,4.15-1.87,.5-1.33,.62-2.81,.95-4.38-4.34-1.08-8.51-2.05-12.64-3.14-7.46-1.97-14.78-4.34-21.45-8.34-2.67-1.6-5.23-3.4-6.92-6.16,.27-.7,.5-1.34,.76-1.97,9.81-23.14,19.61-46.29,29.46-69.42,5.04-11.83,10.19-23.62,15.28-35.43C54.33,2.36,56.06,.27,59.32,.02c3.4,0,6.8-.01,10.2-.02,.75,.01,1.5,.03,2.25,.04,6.04,.63,11.93,1.84,17.58,4.19,3.22,1.34,5.32,3.56,6.46,6.74,.56,1.56,.89,3.19,1.34,4.79,.27,.96,.57,1.9,.86,2.85,1.13-2.55,1.77-5.05,2.47-7.54,.81-2.88,2.48-5.04,5.29-6.26C115.51,.59,125.63-.73,136.13,.97c2.47,.4,4.41,1.63,5.73,3.7,.88,1.39,1.59,2.9,2.25,4.41,1.41,3.21,2.69,6.48,4.1,9.69,11.64,26.71,23.3,53.41,34.95,80.11,1.71,3.92,3.41,7.84,5.18,11.91-1.02,1.28-1.8,2.73-2.99,3.65-2.29,1.8-4.69,3.53-7.26,4.89-6.67,3.53-13.91,5.58-21.11,7.67-3.16,.92-6.31,1.83-9.39,2.72-.07,.58-.14,.87-.13,1.15,.19,4.58,1.38,5.52,5.82,4.77,1.24-.21,2.54-.36,3.77-.21,1.91,.24,2.33,.97,2.35,3.29-.68,.41-1.38,.83-2.49,1.49,2.81,.99,5.15,1.92,7.55,2.64,4.24,1.27,8.44,1.28,12.58-.57,2.83-1.26,5.87-1.44,8.91-1.15,4.72,.46,8.45,3.4,9.52,7.49,.29,1.12,.19,6.18,.75,7.13-2.14,1.42-5.92,2.54-9.92,2.99-7.59,.82-11.89,.34-17.75,.11Zm-25.32-31.51c-9.5-40.98-18.88-81.43-28.28-121.97-.91,.07-1.49,.07-2.05,.18-.55,.11-1.08,.33-1.74,.54,7.54,40.99,15.05,81.84,22.62,122.97,3.15-.58,5.99-1.1,9.45-1.73ZM85.23,6.16c-1.47-.48-2.63-.85-3.98-1.29-8.99,40.84-20.04,81.03-27.62,122.22,2.96,.53,5.61,1.47,8.5,1.02,7.71-40.7,15.39-81.24,23.1-121.94ZM28.8,120.94C42.62,81.51,56.32,42.41,70.06,3.21c-.89-.15-1.46-.28-2.03-.33-.55-.05-1.11-.01-1.74-.01-15.18,38.31-30.63,76.38-44.48,115.19,.57,.28,.98,.53,1.42,.7,1.71,.68,3.44,1.35,5.58,2.18ZM126.26,3.72c13.7,39.05,26.91,78.07,41.24,116.99,2.62-1.12,4.91-2.1,7.38-3.16-15.06-38.2-30-76.07-44.9-113.84h-3.73Zm-7.57,.8c11.02,40.34,21.98,80.47,33.05,120.98,2.55-.72,5-1.41,7.51-2.11-12.37-40.03-24.62-79.66-36.9-119.39-1.35,.19-2.38,.34-3.66,.52Zm-44.65-.93c-6.64,18.04-36.21,115.81-36.3,120.16,2.18,.54,4.41,1.1,6.65,1.66,11.03-40.54,21.99-80.8,32.99-121.26-1.32-.22-2.26-.38-3.35-.56Zm58.28,144.81c4.24,1.55,10.46,1.36,13.01-.36,.25,.1,.55,.17,.78,.33,7.12,5.16,15.07,7.63,23.85,7.38,5.46-.15,10.94-.23,16.38-.63,2.35-.17,4.66-1.08,7.01-1.66,0-.88,0-1.36,0-1.84-.02-4.44-2.63-8.46-8.46-8.28-3.55,.11-6.96,.73-10.35,1.6-2.18,.56-4.29,.99-6.59,.34-3.16-.9-6.4-1.51-9.5-2.22-1.15,1.27-2.17,2.39-3.35,3.69-1.23-2.24,1.38-2.64,1.21-4.39-.68-.33-1.51-.74-2.35-1.16-.98,.63-1.88,1.2-2.67,1.71-.2,.85-.36,1.54-.55,2.32-2.02-.83-1.36-2.33-1.45-3.56,.68-.74,1.3-1.41,1.88-2.04-1.03-1.95-2.47-1.32-3.62-.72-2.78,1.44-5.71,1.12-8.62,.95-1.72-.1-3.43-.46-5.19-.71-1.48,3.06-1.64,6.03-1.42,9.26ZM2.56,153.21c4.13,1.57,8.43,2.36,12.79,2.53,6.05,.22,12.06-.18,18.09-.96,5.49-.71,10.36-2.52,14.85-5.63,.86-.6,1.83-1.04,2.75-1.56,.74,.71,1.36,1.3,2.07,1.98,3.46-.31,6.92-.62,10.33-.92,.3-3.48-.37-6.36-1.8-9.33-1.16,.05-2.35-.06-3.46,.19-3.42,.78-6.75,.88-9.94-.84-1.4-.75-2.54-.52-3.61,.85,1.32,.92,2.49,1.73,3.58,2.49q-.03,2.5-1.65,3.01c-.09-.94-.17-1.87-.27-2.95-2.08-.66-4.03-.44-5.96-.13-.26,1.85,2.79,2.91,.65,5.19-.9-1.54-1.67-2.86-2.5-4.28-.69,.2-1.34,.36-1.97,.58-6.15,2.15-12.33,2.66-18.64,.66-1.75-.55-3.61-.93-5.43-1.02-2.54-.12-5.08,.19-7.18,1.88-2.65,2.13-3.18,4.97-2.7,8.27Zm72.72-23.2c1.41-9.73,2.76-19,4.11-28.27,1.46-10.05,2.91-20.1,4.4-30.15,1.46-9.85,2.96-19.69,4.45-29.53,1.32-8.68,2.69-17.36,3.98-26.04,.2-1.34,.25-2.74,.12-4.09-.15-1.61-.91-2.91-2.72-3.36-7.02,40.28-13.95,80.45-19.91,121.15,2.06,.11,3.67,.19,5.58,.29Zm51.26-.02c-6.63-40.88-13.18-81.22-19.79-121.96-.89,.53-1.39,.78-1.83,1.1-.45,.34-.85,.77-1.32,1.21,5.79,40.05,11.58,80.03,17.4,120.27,2.01-.22,3.6-.4,5.55-.62ZM15.35,114.16C30.45,77.27,45.56,40.35,60.82,3.04c-1.43,.31-2.44,.52-3.75,.8C41.78,39.67,26.48,75.5,11.2,111.29c.88,1.64,2.02,2.73,4.15,2.87ZM135.45,4.24c15.13,36.86,30.05,73.34,45.97,109.88,1.32-1.14,2.3-1.99,3.32-2.86-2.4-5.85-4.61-11.47-7-17-8.55-19.76-17.16-39.5-25.76-59.24-3.97-9.11-7.97-18.21-11.93-27.32-.81-1.87-1.8-3.41-4.59-3.45Zm-52.1,125.9c.77-5.56,1.5-10.78,2.2-16.01,1.49-11.14,2.96-22.28,4.43-33.42,1.12-8.53,2.25-17.05,3.33-25.58,.96-7.56,1.99-15.11,2.72-22.69,.35-3.66,.08-7.38-1.13-11.59-4.88,36.83-11,72.84-15.24,109.29h3.69ZM101.63,20.46c-1.41,2.81-1.88,5.88-1.5,9,1.41,11.53,2.9,23.06,4.37,34.58,2.39,18.6,4.78,37.2,7.19,55.79,.46,3.56,1.07,7.1,1.61,10.66h3.59c-5.11-36.8-10.19-73.42-15.27-110.04Zm32.19,116.67c4.46,1.21,8.54,2.63,12.83-.05-.48-2.42-.95-4.74-1.43-7.12-4.19,.75-7.98,1.42-11.94,2.13,.19,1.78,.35,3.3,.54,5.04Zm-83.09-7.26c-.53,2.57-1,4.82-1.47,7.13,4.46,2.81,8.42,.89,12.38-.15,.23-1.82,.41-3.35,.64-5.19-3.83-.59-7.54-1.16-11.56-1.78Zm104.42,8.12c-.62-1.22-.98-.79-1.32,.14,.37-.04,.74-.08,1.32-.14Zm-112.48-.34c-.01-.13-.03-.27-.04-.4h-2.3c.02,.22,.03,.44,.05,.67,.77-.09,1.53-.18,2.3-.27Z"/>
          <path class="cls-3" d="M143.23,127.36c-3.46,.63-6.3,1.15-9.45,1.73-7.57-41.14-15.08-81.98-22.62-122.97,.66-.21,1.19-.43,1.74-.54,.56-.11,1.14-.11,2.05-.18,9.4,40.54,18.78,80.99,28.28,121.97Z"/>
          <path class="cls-3" d="M85.23,6.16c-7.71,40.7-15.39,81.24-23.1,121.94-2.89,.45-5.54-.49-8.5-1.02,7.58-41.19,18.63-81.37,27.62-122.22,1.35,.44,2.51,.81,3.98,1.29Z"/>
          <path class="cls-3" d="M28.8,120.94c-2.14-.83-3.86-1.5-5.58-2.18-.44-.18-.85-.42-1.42-.7C35.65,79.24,51.11,41.18,66.28,2.86c.63,0,1.19-.04,1.74,.01,.58,.05,1.15,.18,2.03,.33-13.74,39.21-27.44,78.31-41.25,117.73Z"/>
          <path class="cls-3" d="M126.26,3.72h3.73c14.9,37.77,29.83,75.64,44.9,113.84-2.47,1.06-4.76,2.03-7.38,3.16-14.33-38.93-27.54-77.94-41.24-116.99Z"/>
          <path class="cls-3" d="M118.69,4.52c1.28-.18,2.31-.33,3.66-.52,12.28,39.73,24.53,79.36,36.9,119.39-2.5,.7-4.96,1.39-7.51,2.11-11.07-40.51-22.03-80.65-33.05-120.98Z"/>
          <path class="cls-3" d="M74.04,3.59c1.08,.18,2.03,.34,3.35,.56-11.01,40.45-21.96,80.72-32.99,121.26-2.24-.56-4.47-1.12-6.65-1.66,.09-4.35,29.66-102.11,36.3-120.16Z"/>
          <path class="cls-2" d="M132.33,148.4c-.22-3.23-.05-6.2,1.42-9.26,1.76,.25,3.46,.61,5.19,.71,2.91,.17,5.83,.49,8.62-.95,1.15-.6,2.58-1.23,3.62,.72-.58,.63-1.2,1.31-1.88,2.04,.09,1.23-.57,2.74,1.45,3.56,.18-.78,.35-1.47,.55-2.32,.8-.51,1.69-1.08,2.67-1.71,.84,.42,1.67,.82,2.35,1.16,.16,1.76-2.44,2.15-1.21,4.39,1.18-1.3,2.19-2.42,3.35-3.69,3.1,.71,6.34,1.33,9.5,2.22,2.29,.65,4.4,.22,6.59-.34,3.4-.87,6.81-1.49,10.35-1.6,5.84-.18,8.44,3.84,8.46,8.28,0,.48,0,.96,0,1.84-2.35,.58-4.65,1.48-7.01,1.66-5.45,.4-10.92,.47-16.38,.63-8.78,.25-16.74-2.22-23.85-7.38-.23-.17-.53-.23-.78-.33-2.55,1.72-8.77,1.91-13.01,.36Z"/>
          <path class="cls-2" d="M2.56,153.21c-.48-3.3,.05-6.14,2.7-8.27,2.1-1.69,4.64-2.01,7.18-1.88,1.83,.09,3.68,.47,5.43,1.02,6.31,2,12.49,1.49,18.64-.66,.63-.22,1.28-.38,1.97-.58,.83,1.41,1.6,2.73,2.5,4.28,2.13-2.28-.91-3.34-.65-5.19,1.92-.31,3.87-.53,5.96,.13,.1,1.08,.18,2.01,.27,2.95q1.62-.51,1.65-3.01c-1.09-.76-2.26-1.57-3.58-2.49,1.07-1.37,2.21-1.6,3.61-.85,3.19,1.72,6.52,1.62,9.94,.84,1.11-.25,2.3-.14,3.46-.19,1.43,2.96,2.1,5.85,1.8,9.33-3.42,.31-6.87,.61-10.33,.92-.71-.68-1.32-1.27-2.07-1.98-.92,.52-1.89,.96-2.75,1.56-4.49,3.1-9.36,4.92-14.85,5.63-6.03,.78-12.04,1.18-18.09,.96-4.37-.16-8.66-.96-12.79-2.53Z"/>
          <path class="cls-3" d="M75.28,130.01c-1.91-.1-3.52-.18-5.58-.29,5.96-40.7,12.89-80.87,19.91-121.15,1.81,.45,2.57,1.75,2.72,3.36,.13,1.35,.08,2.75-.12,4.09-1.29,8.69-2.66,17.36-3.98,26.04-1.5,9.84-2.99,19.68-4.45,29.53-1.49,10.05-2.94,20.1-4.4,30.15-1.35,9.27-2.69,18.55-4.11,28.27Z"/>
          <path class="cls-3" d="M126.54,129.98c-1.95,.22-3.54,.4-5.55,.62-5.82-40.24-11.61-80.22-17.4-120.27,.48-.44,.87-.87,1.32-1.21,.44-.33,.94-.57,1.83-1.1,6.61,40.74,13.16,81.08,19.79,121.96Z"/>
          <path class="cls-3" d="M15.35,114.16c-2.14-.14-3.27-1.23-4.15-2.87C26.48,75.5,41.78,39.67,57.07,3.84c1.31-.28,2.32-.49,3.75-.8C45.56,40.35,30.45,77.27,15.35,114.16Z"/>
          <path class="cls-3" d="M135.45,4.24c2.79,.04,3.78,1.59,4.59,3.45,3.96,9.12,7.96,18.21,11.93,27.32,8.6,19.74,17.21,39.48,25.76,59.24,2.39,5.53,4.6,11.15,7,17-1.01,.87-1.99,1.72-3.32,2.86-15.92-36.55-30.84-73.02-45.97-109.88Z"/>
          <path class="cls-3" d="M83.34,130.14h-3.69c4.24-36.45,10.36-72.46,15.24-109.29,1.21,4.21,1.48,7.93,1.13,11.59-.73,7.58-1.76,15.13-2.72,22.69-1.08,8.53-2.21,17.06-3.33,25.58-1.47,11.14-2.94,22.28-4.43,33.42-.7,5.23-1.44,10.45-2.2,16.01Z"/>
          <path class="cls-3" d="M101.63,20.46c5.08,36.62,10.16,73.24,15.27,110.04h-3.59c-.54-3.56-1.15-7.1-1.61-10.66-2.42-18.59-4.81-37.19-7.19-55.79-1.48-11.52-2.97-23.05-4.37-34.58-.38-3.12,.09-6.19,1.5-9Z"/>
          <path class="cls-3" d="M133.82,137.13c-.19-1.75-.35-3.26-.54-5.04,3.96-.71,7.75-1.38,11.94-2.13,.48,2.38,.94,4.7,1.43,7.12-4.29,2.68-8.36,1.26-12.83,.05Z"/>
          <path class="cls-3" d="M50.73,129.87c4.02,.62,7.73,1.19,11.56,1.78-.23,1.84-.42,3.37-.64,5.19-3.96,1.05-7.93,2.96-12.38,.15,.48-2.3,.94-4.55,1.47-7.13Z"/>
        </g>
        <g>
          <path class="cls-4" d="M43.4,230.76c-9.48,2.31,4.16-32.06,4.06-37.65-6.78,10.49-11.97,27.22-23.65,33.06-11.59-.18-.57-23.05-.63-29.23-6.63,10.4-12.11,24.64-19.09,34.49-5.81-1.83-2.06-9.33,.47-12.37,4.8-9.29,11.38-20.88,16.53-29.3,1.2-2.32,2.61-6.91,5.59-5.35,8.8,4.56-3.09,26.21-1.56,33.92,8.29-8.74,12.87-20.81,20.09-31.53,1.92-3.65,4.45-6.24,7.78-2.66,3.99,3.44-2.64,18.79-3.46,24.34-1.54,4.83-1.85,8.35-2.86,13.17-.35,3.37,.33,8.1-3.26,9.11Z"/>
          <path class="cls-4" d="M79.39,233.75c-2.03-.82-3.41-2.33-2.93-4.52,5.12-10.55,9.7-24.56,14.23-36.12-8.77,9.87-17.13,21.35-26.51,30.5-2.17,1.95-4.8,4.72-7.62,5.62-2.93-.51-4.26-1.56-3.63-4.16,4.02-13.96,7.41-27.9,14.14-40.87,.95-1.56,.15-2.96,1.4-3.86,3.17-1.53,5.93,2.24,4.59,5.19-3.69,9.09-9.6,24.99-13.17,33.99,3.46-3.55,15.02-14.56,17.69-18.43,4.63-6.07,12.19-12.91,17.23-18.62,2.09-1.22,4.26-.69,4.96,1.76-3.17,12.34-10.04,24.81-13.57,37.38-1.29,2.31-3.67,13.96-6.82,12.14Z"/>
          <path class="cls-4" d="M96.22,230.69c-2.58-1.16-2.2-3.67-1.6-5.99,4.02-11.9,8.03-25.01,13.57-36.58,.62-.74,1.12-3.14,2-3.93,3.26-1.97,4.95-.56,5.12,2.69-1.88,5.37-5.74,11.64-7.25,17.13-1.72,4.15-3.82,9.13-5.05,13.74-1.25,2.22-3.32,16.59-6.78,12.94Zm8.12-25.54c4.5-1.85,28.57-26.95,30.23-18.59,.92,2.04,.6,2.86-1.5,3.96-5.97,3.21-11.05,8.26-16.03,11.51-2.96,3.01-7.31,5.01-10.31,8.11l-2.39-4.99Zm15.43,25.41c-8.14-2.99-12.78-13.01-14.23-21.09,0,0,.07-4.12,.07-4.12l4.86-.33c.81,7.57,4.2,16.58,11.24,19.62,4.79,1.12,2.76,8.68-1.93,5.92Z"/>
          <path class="cls-2" d="M134.6,229.89c-10.51-5.76-2.69-26.4,2.19-34.92,3.24-5.82,9.19-10.71,14.5-11.84,26.87-5.73,2.42,56.25-16.7,46.76Zm13.69-22.55c5.02-.01,13.3-18.49,5.31-18.14-3.89,1.66-11.67,16.95-5.31,18.14Z"/>
          <path class="cls-4" d="M170.45,231.95c-20.69-7.19,3.56-55.77,20.95-50.32,8.32,3.32,1.07,21.69-3.56,19.59-1.19-.32-3.6-2.06-2.76-2.99,1.12-1.46,2.68-4.36,3.33-6.12,4.79-17.7-21.1,12.58-19.42,25.31-1.28,15.7,11.41,4.77,18.56,1.76,8.66,3.09-13.28,14.64-17.09,12.77Z"/>
        </g>
        <g>
          <path class="cls-4" d="M.95,244.4H12.74v2.02H.95v-2.02Zm4.62,.89h2.56v10.34h-2.56v-10.34Z"/>
          <path class="cls-4" d="M19.96,255.92c-4.82,.38-8.47-4.8-5.89-8.98,3.39-5.3,12.36-2.61,11.67,4H15.26v-1.96h9.2l-1.28,.73c.14-3.71-5.15-4.84-6.86-1.82-2.65,5.81,5.46,7.57,9.1,4.46v1.87c-1.43,1.12-3.6,1.72-5.46,1.71Z"/>
          <path class="cls-4" d="M39,250.02c-.67,7.37-11.94,7.95-11.75,0-.21-7.95,11.13-7.38,11.75,0Zm-9.16,0c0,5.43,7.24,4.5,8.26,0-1.01-4.5-8.26-5.42-8.26,0Zm8.37,5.62l-.43-4.17,.51-1.45-.51-1.43,.43-4.19h2.63l-.59,5.62,.59,5.62h-2.63Z"/>
          <path class="cls-4" d="M42.21,244.4h11.79v2.02h-11.79v-2.02Zm4.62,.89h2.56v10.34h-2.56v-10.34Z"/>
          <path class="cls-4" d="M55.61,244.4h2.56c-.1,4.11,0,10.34,0,14.51h-2.56v-14.51Zm1.57,5.62c.65-7.38,11.95-7.95,11.75,0,.18,7.95-11.07,7.36-11.75,0Zm9.16,0c0-5.43-7.22-4.49-8.26,0,1.04,4.49,8.25,5.43,8.26,0Z"/>
          <path class="cls-4" d="M76.27,255.64v-11.23h2.56v9.05l-.77-.28,7.1-8.77h2.91l-9.44,11.23h-2.36Zm9.16,0l-3.46-5.56,1.79-1.63,4.66,7.18h-2.99Z"/>
          <path class="cls-4" d="M91.65,244.4h10.95v11.23h-2.56v-10.44l1.18,1.19h-8.3l1.1-.91c.57,4.3,.78,12.58-5.46,9.88v-1.93c4.89,1.68,3.14-6.06,3.09-9.03Z"/>
          <path class="cls-4" d="M111.46,255.92c-8.9,.42-8.91-12.22,0-11.79,8.9-.42,8.9,12.21,0,11.79Zm0-2.02c5.49,.43,5.49-8.17,0-7.74-5.49-.42-5.49,8.16,0,7.74Z"/>
          <path class="cls-4" d="M123.69,255.28l-5.11-10.88h2.81l4.84,10.88h-2.54Zm-1.28,3.91c-1.23,0-2.27-.31-3.26-.93v-1.96c1.69,1.14,4.5,1.56,5.43-.73,0,0,5.01-11.15,5.01-11.15h2.71c-2.07,2.79-5.16,15.37-9.89,14.79Z"/>
          <path class="cls-4" d="M133.79,244.4h2.54v11.23h-2.54v-11.23Zm1.43,4.54h9.08v1.98h-9.08v-1.98Zm8.02-4.54h2.54v11.23h-2.54v-11.23Z"/>
          <path class="cls-4" d="M159.66,250.02c-.67,7.37-11.94,7.95-11.75,0-.21-7.95,11.13-7.38,11.75,0Zm-9.16,0c0,5.43,7.24,4.5,8.26,0-1.01-4.5-8.26-5.42-8.26,0Zm8.37,5.62l-.43-4.17,.51-1.45-.51-1.43,.43-4.19h2.63l-.59,5.62,.59,5.62h-2.63Z"/>
          <path class="cls-4" d="M178.37,253.65v4.82h-2.22v-2.84h-11.13v2.84h-2.22v-4.82c4.33,.05,11.24,.04,15.57,0Zm-13.09-9.25h11.03v10.48h-2.56v-9.69l1.18,1.19h-8.31l1.1-.87c.16,3.11,.84,8.78-2.79,9.37l-1.04-.89c1.85-1.08,1.76-6.8,1.4-9.59Z"/>
          <path class="cls-4" d="M180.22,255.64v-11.23h2.56v10.52l-.9-1.19c1.77-.32,7.09,1.13,6.98-1.96,.14-3.1-5.14-1.68-6.9-1.98v-1.85c1.64,.12,5.95-.35,7.37,.49,2.81,1.18,2.81,5.56,0,6.74-1.45,.87-7.41,.34-9.1,.48Zm12.5-11.23h2.56v11.23h-2.56v-11.23Z"/>
        </g>
      </g>
    </symbol>
  </defs>
  <g id="_Слой_1-2" data-name="Слой 1">
    <use width="196.22" height="259.21" xlink:href="#Logo_vertical"/>
  </g>
</svg>