<?xml version="1.0" encoding="UTF-8"?>
<svg id="_Слой_2" data-name="Слой 2" xmlns="http://www.w3.org/2000/svg" viewBox="0 0 334.12 92.84">
  <defs>
    <style>
      .cls-1 {
        fill: #e03035;
        stroke: #f2f1f0;
        stroke-miterlimit: 10;
        stroke-width: 5px;
      }

      .cls-2 {
        fill: #f2f1f0;
      }
    </style>
  </defs>
  <g id="_Слой_1-2" data-name="Слой 1">
    <g id="Logo_Horizontal_2" data-name="Logo Horizontal 2">
      <g>
        <path class="cls-2" d="M72.93,87.36c-16.31,3.97,7.16-55.17,6.98-64.78-11.66,18.05-20.59,46.84-40.69,56.88-19.95-.32-.97-39.65-1.09-50.3-11.41,17.9-20.84,42.4-32.85,59.34-9.99-3.15-3.54-16.05,.8-21.29,8.26-15.99,19.59-35.92,28.44-50.42,2.06-3.99,4.49-11.9,9.61-9.21,15.13,7.85-5.31,45.1-2.69,58.37,14.27-15.03,22.15-35.81,34.57-54.25,3.3-6.29,7.65-10.73,13.39-4.58,6.86,5.93-4.54,32.33-5.95,41.89-2.65,8.32-3.18,14.36-4.92,22.66-.59,5.79,.58,13.93-5.61,15.68Z"/>
        <path class="cls-2" d="M134.85,92.51c-3.49-1.4-5.87-4.01-5.04-7.78,8.8-18.16,16.69-42.26,24.49-62.15-15.09,16.99-29.47,36.74-45.61,52.48-3.73,3.36-8.25,8.12-13.11,9.67-5.05-.88-7.32-2.68-6.24-7.15,6.92-24.03,12.76-48.01,24.32-70.33,1.64-2.68,.25-5.09,2.4-6.64,5.45-2.63,10.2,3.85,7.9,8.93-6.34,15.64-16.53,43-22.66,58.49,5.95-6.1,25.85-25.06,30.45-31.7,7.97-10.44,20.98-22.22,29.64-32.05,3.59-2.1,7.34-1.18,8.53,3.03-5.45,21.23-17.27,42.7-23.35,64.32-2.23,3.98-6.31,24.01-11.73,20.89Z"/>
        <path class="cls-2" d="M163.8,87.25c-4.43-2-3.78-6.31-2.75-10.3,6.91-20.48,13.81-43.03,23.35-62.95,1.06-1.27,1.93-5.4,3.43-6.75,5.61-3.39,8.52-.97,8.81,4.64-3.24,9.24-9.87,20.03-12.48,29.47-2.97,7.15-6.57,15.71-8.7,23.63-2.16,3.82-5.72,28.55-11.67,22.26Zm13.96-43.95c7.74-3.17,49.15-46.37,52.02-31.99,1.59,3.51,1.04,4.93-2.57,6.81-10.27,5.53-19.02,14.21-27.58,19.8-5.09,5.17-12.58,8.63-17.74,13.96l-4.12-8.58Zm26.55,43.72c-14.01-5.15-22-22.39-24.49-36.28,0,0,.12-7.1,.12-7.1l8.35-.57c1.4,13.03,7.23,28.54,19.34,33.76,8.24,1.94,4.74,14.94-3.32,10.19Z"/>
        <path class="cls-1" d="M229.84,85.87c-18.09-9.91-4.62-45.43,3.78-60.09,5.58-10.01,15.81-18.42,24.95-20.37,46.23-9.86,4.16,96.79-28.73,80.46Zm23.55-38.8c8.64-.02,22.88-31.81,9.14-31.22-6.69,2.86-20.07,29.16-9.14,31.22Z"/>
        <path class="cls-2" d="M291.53,89.42c-35.6-12.37,6.12-95.96,36.05-86.59,14.31,5.71,1.84,37.31-6.12,33.71-2.05-.55-6.19-3.54-4.75-5.15,1.93-2.52,4.61-7.5,5.72-10.53,8.25-30.45-36.31,21.64-33.42,43.55-2.2,27.01,19.63,8.2,31.93,3.03,14.9,5.32-22.85,25.19-29.41,21.98Z"/>
      </g>
    </g>
  </g>
</svg>